:SAMPLES-PER-SECOND 30
:FULLY-SPECIFIED
:DEGREES
213
root  38.3569 37.0895 -32.5776 45.2803 88.7969 22.2333
RightUpLeg  -56.4542 -11.4632 5.53287
RightLeg  25.1183 -2.06903 -1.27621
RightFoot  7.31401 0.51959 -2.83412
RightToes  0.000482159 0.542163 -0.142577
Spine  68.3968 -3.92277 6.71915
Spine1  8.15806 1.58441 -3.49503
HEad  -20.9356 -5.83534 -2.19978
LeftShoulder1  8.20034 -24.7746 -22.5312
LeftArm  -54.1714 -67.9225 11.9181
LeftForeArm  19.5504 -2.91401 -3.80321
LeftHand  -0.25398 0.0180481 5.50724
RightShoulder  3.52967 13.9746 13.222
RightArm  -48.9702 63.9333 0.53194
RightForeArm  -3.28545 6.85534 4.02997
RightHand  -3.45254 9.33798 -27.1643
LeftUpLeg  -57.3837 18.796 -18.1536
LeftLeg  30.3334 1.6888 1.42097
LeftFoot  1.04943 -1.24996 11.4151
LeftToes  1.06247e-005 4.65855e-005 -8.18501e-006
214
root  37.8131 37.3973 -32.6868 44.7378 88.0927 23.6966
RightUpLeg  -53.5043 -12.8531 5.46758
RightLeg  23.2936 -3.40468 -1.82688
RightFoot  5.29464 0.0678665 -0.197485
RightToes  0.000482159 0.542163 -0.142577
Spine  66.5146 -3.68962 5.96678
Spine1  9.78789 1.20667 -3.38288
HEad  -17.452 -4.68246 -3.84077
LeftShoulder1  8.78802 -24.1102 -25.5076
LeftArm  -42.2637 -64.1574 0.644299
LeftForeArm  18.9731 -3.37185 -4.55757
LeftHand  -0.25398 0.0180481 5.50724
RightShoulder  4.18781 14.7602 16.2214
RightArm  -37.6652 60.5813 9.48761
RightForeArm  -4.61947 8.401 5.52706
RightHand  -3.59649 9.5731 -27.8037
LeftUpLeg  -54.2763 20.5216 -18.9429
LeftLeg  26.3635 0.777559 0.764003
LeftFoot  3.13515 -1.50716 11.669
LeftToes  1.06247e-005 4.65855e-005 -8.18501e-006
215
root  37.2524 37.6979 -32.7408 40.4111 87.4587 21.4889
RightUpLeg  -50.8198 -13.336 4.53218
RightLeg  25.0604 -5.98758 -3.29253
RightFoot  2.50703 -0.168706 1.51014
RightToes  0.000482159 0.542163 -0.142577
Spine  64.6631 -3.31134 5.46816
Spine1  11.1057 0.968653 -2.89096
HEad  -14.5809 -3.5931 -5.55884
LeftShoulder1  9.35394 -23.1307 -28.9242
LeftArm  -32.9123 -59.2551 -8.1544
LeftForeArm  18.5058 -3.56297 -5.21042
LeftHand  -0.25398 0.0180481 5.50724
RightShoulder  4.64634 15.1319 18.3889
RightArm  -27.7924 55.9247 16.5814
RightForeArm  -6.45652 10.0865 6.77423
RightHand  -3.79203 10.0058 -28.4648
LeftUpLeg  -51.027 22.5194 -19.5356
LeftLeg  22.1247 -0.474888 0.15708
LeftFoot  5.47436 -1.8027 11.9251
LeftToes  1.06247e-005 4.65855e-005 -8.18501e-006
216
root  36.6804 37.9638 -32.74 28.8503 86.841 12.2199
RightUpLeg  -47.9606 -11.8021 2.63054
RightLeg  30.337 -8.74158 -5.74209
RightFoot  0.113074 -0.133507 1.30922
RightToes  0.000482159 0.542163 -0.142577
Spine  62.9832 -2.8575 5.33075
Spine1  11.8419 0.942985 -2.3686
HEad  -11.8489 -2.47691 -7.29989
LeftShoulder1  9.8458 -22.0641 -32.3671
LeftArm  -25.855 -52.8991 -14.4969
LeftForeArm  18.1797 -3.57316 -5.72517
LeftHand  -0.25398 0.0180481 5.50724
RightShoulder  5.04854 15.1622 20.655
RightArm  -18.9935 50.6575 21.6408
RightForeArm  -7.86652 11.9512 7.52159
RightHand  -3.69607 9.76084 -28.2009
LeftUpLeg  -47.613 24.3997 -18.9913
LeftLeg  18.1479 -1.22846 -0.30308
LeftFoot  7.89862 -2.06135 11.8357
LeftToes  1.06247e-005 4.65855e-005 -8.18501e-006
217
root  36.1131 38.1806 -32.6719 15.3626 86.2046 1.05759
RightUpLeg  -44.6542 -9.06659 0.823909
RightLeg  37.0608 -10.5169 -8.67422
RightFoot  -1.58784 0.0123766 -0.277253
RightToes  0.000482159 0.542163 -0.142577
Spine  61.2702 -2.20849 5.21044
Spine1  12.2542 1.04738 -1.46793
HEad  -8.7426 -0.894781 -9.23259
LeftShoulder1  10.414 -21.1235 -36.1172
LeftArm  -20.4593 -45.0769 -17.8645
LeftForeArm  18.0236 -3.69472 -6.33449
LeftHand  -0.25398 0.0180481 5.50724
RightShoulder  5.40678 14.9312 23.0907
RightArm  -11.1238 45.3293 25.1318
RightForeArm  -8.84261 13.5387 7.8601
RightHand  -3.48617 9.13482 -27.7682
LeftUpLeg  -43.2957 24.1572 -15.3023
LeftLeg  14.5812 1.22921 -1.28623
LeftFoot  10.0988 -2.25201 11.5253
LeftToes  1.06247e-005 4.65855e-005 -8.18501e-006
